<svg xmlns="http://www.w3.org/2000/svg" clip-rule="evenodd" fill-rule="evenodd" image-rendering="optimizeQuality" shape-rendering="geometricPrecision" text-rendering="geometricPrecision" viewBox="0 0 391.27 338.85" style="fill: rgb(0, 0, 0);" original_string_length="1273"><g><g id="__id114_sgfprf2wlk"><path d="M195.63 109.83L132.22 109.83 0 338.85 190.23 338.85 227.34 274.57 201.03 229.02 195.63 219.66 190.23 229.02 158.52 283.93 95.12 283.93z" style="fill: rgb(56, 182, 255);"/></g><g id="__id115_sgfprf2wlk"><path d="M391.27 338.85L293.45 169.42 195.63 0 163.93 54.92 178.52 80.19 195.63 109.83 213.03 139.96 296.15 283.93 313.26 313.57 327.86 338.85z" style="fill: rgb(131, 133, 140);"/></g><g id="__id116_sgfprf2wlk"><path d="M195.63 109.83L146.39 135.84 43.78 313.57 95.12 283.93z" style="fill: rgb(36, 147, 212);"/></g><g id="__id117_sgfprf2wlk"><path d="M43.78 313.57L0 338.85 188.3 338.85 174.59 313.57z" style="fill: rgb(36, 147, 212);"/></g><g id="__id118_sgfprf2wlk"><path d="M158.52 283.93L174.59 313.57 191.07 283.93 197.57 272.24 195.63 219.66 158.52 283.93z" style="fill: rgb(36, 147, 212);"/></g><g id="__id119_sgfprf2wlk"><path d="M213.03 139.96L296.15 283.93 313.26 313.57 327.86 338.85 391.27 338.85 347.49 313.57 195.63 50.55 163.93 54.92 178.52 80.19 195.63 109.83z" style="fill: rgb(104, 105, 110);"/></g><g id="__id120_sgfprf2wlk"><path d="M195.63 50.55L195.63 0 163.93 54.92z" style="fill: rgb(139, 141, 147);"/></g></g></svg>